<svg xmlns="http://www.w3.org/2000/svg" viewBox="0 0 120 110" width="120" height="110">
  <path d="M26 54 q-14 -10 -10 -28" fill="none" stroke="#1a1d28" stroke-width="9" stroke-linecap="round"/><path d="M26 54 q-14 -10 -10 -28" fill="none" stroke="#b8824f" stroke-width="5" stroke-linecap="round"/>
  <rect x="34" y="68" width="11" height="30" rx="5" fill="#b8824f" stroke="#1a1d28" stroke-width="3"/>
  <ellipse cx="40" cy="97" rx="7" ry="3.5" fill="#1a1d28"/>
  <rect x="46" y="68" width="11" height="30" rx="5" fill="#b8824f" stroke="#1a1d28" stroke-width="3"/>
  <ellipse cx="52" cy="97" rx="7" ry="3.5" fill="#1a1d28"/>
  <rect x="64" y="68" width="11" height="30" rx="5" fill="#b8824f" stroke="#1a1d28" stroke-width="3"/>
  <ellipse cx="70" cy="97" rx="7" ry="3.5" fill="#1a1d28"/>
  <rect x="76" y="68" width="11" height="30" rx="5" fill="#b8824f" stroke="#1a1d28" stroke-width="3"/>
  <ellipse cx="82" cy="97" rx="7" ry="3.5" fill="#1a1d28"/>
  <ellipse cx="56" cy="60" rx="32" ry="20" fill="#b8824f" stroke="#1a1d28" stroke-width="3"/>
  <ellipse cx="66" cy="66" rx="14" ry="10" fill="#f3e3c6"/>
  <circle cx="88" cy="42" r="20" fill="#b8824f" stroke="#1a1d28" stroke-width="3"/>
  <circle cx="95" cy="38" r="9" fill="#6b4a2b"/>
  <ellipse cx="104" cy="48" rx="12" ry="8.5" fill="#f3e3c6" stroke="#1a1d28" stroke-width="3"/>
  <circle cx="113" cy="45" r="4.2" fill="#1a1d28"/>
  <path d="M104 52 q4 4 8 0" fill="none" stroke="#1a1d28" stroke-width="2" stroke-linecap="round"/>
  <path d="M103 55 q3 8 7 1 z" fill="#ff6ad5" stroke="#1a1d28" stroke-width="1.5"/>
  <circle cx="93" cy="38" r="4.800000000000001" fill="#ffffff" stroke="#1a1d28" stroke-width="1.5"/>
  <circle cx="93.6" cy="38" r="3.2" fill="#1a1d28"/>
  <circle cx="94.6" cy="36.8" r="1.1" fill="#ffffff"/>
  <path d="M70 36 q10 14 4 22" fill="none" stroke="#1a1d28" stroke-width="8" stroke-linecap="round"/>
  <path d="M70 36 q10 14 4 22" fill="none" stroke="#3cc8ff" stroke-width="4" stroke-linecap="round"/>
  <circle cx="74" cy="46" r="4" fill="#ffd166" stroke="#1a1d28" stroke-width="2"/>
  <path d="M76 28 q-8 14 2 30 q10 2 10 -12 q-2 -14 -12 -18z" fill="#b8824f" stroke="#1a1d28" stroke-width="3" stroke-linejoin="round"/>
</svg>
